<svg xmlns="http://www.w3.org/2000/svg" width="1200" height="630" viewBox="0 0 1200 630">
  <defs>
    <linearGradient id="bg" x1="0" y1="0" x2="1" y2="1">
      <stop offset="0" stop-color="#ffffff"/>
      <stop offset="1" stop-color="#faf9f6"/>
    </linearGradient>
    <linearGradient id="acc" x1="0" y1="0" x2="1" y2="1">
      <stop offset="0" stop-color="#6366f1"/>
      <stop offset="1" stop-color="#8b5cf6"/>
    </linearGradient>
  </defs>
  <rect width="1200" height="630" fill="url(#bg)"/>
  <circle cx="1050" cy="80" r="320" fill="#eef2ff" opacity="0.7"/>

  <!-- brand lockup -->
  <g transform="translate(90,118)">
    <g transform="scale(0.6)">
      <rect width="100" height="100" rx="24" fill="url(#acc)"/>
      <rect x="22" y="35" width="28" height="9" rx="4.5" fill="#fff"/>
      <rect x="22" y="49" width="20" height="9" rx="4.5" fill="#fff"/>
      <rect x="22" y="63" width="28" height="9" rx="4.5" fill="#fff"/>
      <path d="M60 39a15 15 0 0 1 0 22" stroke="#fff" stroke-width="8" fill="none" stroke-linecap="round"/>
      <path d="M71 31a30 30 0 0 1 0 38" stroke="#fff" stroke-width="8" fill="none" stroke-linecap="round"/>
    </g>
    <text x="78" y="44" font-family="Georgia, serif" font-size="34" font-weight="700" fill="#0f172a">ReadAloud</text>
  </g>

  <text x="90" y="320" font-family="Georgia, serif" font-size="78" font-weight="700" fill="#0f172a">Stop reading everything.</text>
  <rect x="86" y="350" width="430" height="70" rx="14" fill="#eef2ff" opacity="0.6"/>
  <text x="90" y="410" font-family="Georgia, serif" font-size="78" font-weight="700" fill="#0f172a">Start <tspan fill="#3730a3">listening</tspan> to it.</text>
  <text x="90" y="500" font-family="Helvetica, Arial, sans-serif" font-size="30" fill="#475569">Reads any web page, PDF or article aloud — with every word</text>
  <text x="90" y="540" font-family="Helvetica, Arial, sans-serif" font-size="30" fill="#475569">highlighted as it&#8217;s spoken. Free Chrome extension.</text>
</svg>
